<svg width="24" height="24" viewBox="0 0 24 24" fill="none" xmlns="http://www.w3.org/2000/svg">
<path d="M19 20H5C3.93913 20 2.92172 19.5786 2.17157 18.8284C1.42143 18.0783 1 17.0609 1 16V12C1 10.9391 1.42143 9.92172 2.17157 9.17157C2.92172 8.42143 3.93913 8 5 8H19C20.0609 8 21.0783 8.42143 21.8284 9.17157C22.5786 9.92172 23 10.9391 23 12V16C23 17.0609 22.5786 18.0783 21.8284 18.8284C21.0783 19.5786 20.0609 20 19 20ZM5 10C4.46957 10 3.96086 10.2107 3.58579 10.5858C3.21071 10.9609 3 11.4696 3 12V16C3 16.5304 3.21071 17.0391 3.58579 17.4142C3.96086 17.7893 4.46957 18 5 18H19C19.5304 18 20.0391 17.7893 20.4142 17.4142C20.7893 17.0391 21 16.5304 21 16V12C21 11.4696 20.7893 10.9609 20.4142 10.5858C20.0391 10.2107 19.5304 10 19 10H5Z" fill="#191F5C"/>
<path d="M19 10H5V8C5 6.14348 5.7375 4.36301 7.05025 3.05025C8.36301 1.7375 10.1435 1 12 1C13.8565 1 15.637 1.7375 16.9497 3.05025C18.2625 4.36301 19 6.14348 19 8V10ZM7 8H17C17 6.67392 16.4732 5.40215 15.5355 4.46447C14.5979 3.52678 13.3261 3 12 3C10.6739 3 9.40215 3.52678 8.46447 4.46447C7.52678 5.40215 7 6.67392 7 8Z" fill="#191F5C"/>
<path d="M19 9H5C4.20435 9 3.44129 9.31607 2.87868 9.87868C2.31607 10.4413 2 11.2044 2 12V16C2 16.7956 2.31607 17.5587 2.87868 18.1213C3.44129 18.6839 4.20435 19 5 19H19C19.7956 19 20.5587 18.6839 21.1213 18.1213C21.6839 17.5587 22 16.7956 22 16V12C22 11.2044 21.6839 10.4413 21.1213 9.87868C20.5587 9.31607 19.7956 9 19 9ZM6 15C5.80222 15 5.60888 14.9414 5.44443 14.8315C5.27998 14.7216 5.15181 14.5654 5.07612 14.3827C5.00043 14.2 4.98063 13.9989 5.01921 13.8049C5.0578 13.6109 5.15304 13.4327 5.29289 13.2929C5.43275 13.153 5.61093 13.0578 5.80491 13.0192C5.99889 12.9806 6.19996 13.0004 6.38268 13.0761C6.56541 13.1518 6.72159 13.28 6.83147 13.4444C6.94135 13.6089 7 13.8022 7 14C7 14.2652 6.89464 14.5196 6.70711 14.7071C6.51957 14.8946 6.26522 15 6 15ZM10 15C9.80222 15 9.60888 14.9414 9.44443 14.8315C9.27998 14.7216 9.15181 14.5654 9.07612 14.3827C9.00043 14.2 8.98063 13.9989 9.01921 13.8049C9.0578 13.6109 9.15304 13.4327 9.29289 13.2929C9.43275 13.153 9.61093 13.0578 9.80491 13.0192C9.99889 12.9806 10.2 13.0004 10.3827 13.0761C10.5654 13.1518 10.7216 13.28 10.8315 13.4444C10.9414 13.6089 11 13.8022 11 14C11 14.2652 10.8946 14.5196 10.7071 14.7071C10.5196 14.8946 10.2652 15 10 15ZM14 15C13.8022 15 13.6089 14.9414 13.4444 14.8315C13.28 14.7216 13.1518 14.5654 13.0761 14.3827C13.0004 14.2 12.9806 13.9989 13.0192 13.8049C13.0578 13.6109 13.153 13.4327 13.2929 13.2929C13.4327 13.153 13.6109 13.0578 13.8049 13.0192C13.9989 12.9806 14.2 13.0004 14.3827 13.0761C14.5654 13.1518 14.7216 13.28 14.8315 13.4444C14.9414 13.6089 15 13.8022 15 14C15 14.2652 14.8946 14.5196 14.7071 14.7071C14.5196 14.8946 14.2652 15 14 15ZM18 15C17.8022 15 17.6089 14.9414 17.4444 14.8315C17.28 14.7216 17.1518 14.5654 17.0761 14.3827C17.0004 14.2 16.9806 13.9989 17.0192 13.8049C17.0578 13.6109 17.153 13.4327 17.2929 13.2929C17.4327 13.153 17.6109 13.0578 17.8049 13.0192C17.9989 12.9806 18.2 13.0004 18.3827 13.0761C18.5654 13.1518 18.7216 13.28 18.8315 13.4444C18.9414 13.6089 19 13.8022 19 14C19 14.2652 18.8946 14.5196 18.7071 14.7071C18.5196 14.8946 18.2652 15 18 15Z" fill="#191F5C"/>
</svg>
